HIERARCHY
ROOT Hips
{
	OFFSET 0.000000 0.000000 0.000000 
	CHANNELS 6 Xposition Yposition Zposition Zrotation Yrotation Xrotation
	JOINT LeftUpLeg
	{
		OFFSET 1.363060 -1.794630 0.839290 
		CHANNELS 3 Zrotation Yrotation Xrotation
		JOINT LeftLeg
		{
			OFFSET 2.448110 -6.726130 0.000000 
			CHANNELS 3 Zrotation Yrotation Xrotation
			JOINT LeftFoot
			{
				OFFSET 2.562200 -7.039590 0.000000 
				CHANNELS 3 Zrotation Yrotation Xrotation
				JOINT LeftToeBase
				{
					OFFSET 0.157640 -0.433110 2.322550 
					CHANNELS 3 Zrotation Yrotation Xrotation
					End Site
					{
						OFFSET 0.000000 0.000000 0.000000 
					}
				}
			}
		}
	}
	JOINT RightUpLeg
	{
		OFFSET -1.305520 -1.794630 0.839290 
		CHANNELS 3 Zrotation Yrotation Xrotation
		JOINT RightLeg
		{
			OFFSET -2.542530 -6.985550 0.000000 
			CHANNELS 3 Zrotation Yrotation Xrotation
			JOINT RightFoot
			{
				OFFSET -2.568260 -7.056230 0.000000 
				CHANNELS 3 Zrotation Yrotation Xrotation
				JOINT RightToeBase
				{
					OFFSET -0.164730 -0.452590 2.363150 
					CHANNELS 3 Zrotation Yrotation Xrotation
					End Site
					{
						OFFSET 0.000000 0.000000 0.000000 
					}
				}
			}
		}
	}
	JOINT Spine
	{
		OFFSET 0.028270 2.035590 -0.193380 
		CHANNELS 3 Zrotation Yrotation Xrotation
		JOINT Spine1
		{
			OFFSET 0.056720 2.048850 -0.042750 
			CHANNELS 3 Zrotation Yrotation Xrotation
			JOINT Neck1
			{
				OFFSET -0.054170 1.746240 0.172020 
				CHANNELS 3 Zrotation Yrotation Xrotation
				JOINT Head
				{
					OFFSET 0.104070 1.761360 -0.123970 
					CHANNELS 3 Zrotation Yrotation Xrotation
					End Site
					{
						OFFSET 0.000000 0.000000 0.000000 
					}
				}
			}
			JOINT LeftArm
			{
				OFFSET 3.362410 1.200890 -0.311210 
				CHANNELS 3 Zrotation Yrotation Xrotation
				JOINT LeftForeArm
				{
					OFFSET 4.983000 -0.000000 -0.000000 
					CHANNELS 3 Zrotation Yrotation Xrotation
					JOINT LeftHand
					{
						OFFSET 3.483560 -0.000000 -0.000000 
						CHANNELS 3 Zrotation Yrotation Xrotation
						JOINT LeftHandIndex1
						{
							OFFSET 0.715260 -0.000000 -0.000000 
							CHANNELS 3 Zrotation Yrotation Xrotation
							End Site
							{
								OFFSET 0.000000 0.000000 0.000000 
							}
						}
					}
				}
			}
			JOINT RightArm
			{
				OFFSET -3.136600 1.374050 -0.404650 
				CHANNELS 3 Zrotation Yrotation Xrotation
				JOINT RightForeArm
				{
					OFFSET -5.241900 -0.000000 -0.000000 
					CHANNELS 3 Zrotation Yrotation Xrotation
					JOINT RightHand
					{
						OFFSET -3.444170 -0.000000 -0.000000 
						CHANNELS 3 Zrotation Yrotation Xrotation
						JOINT RightHandIndex1
						{
							OFFSET -0.622530 -0.000000 -0.000000 
							CHANNELS 3 Zrotation Yrotation Xrotation
							End Site
							{
								OFFSET 0.000000 0.000000 0.000000 
							}
						}
					}
				}
			}
		}
	}
}
MOTION
Frames: 15
Frame Time: 0.041667
-28.777056 17.484482 1.015579 26.627943 88.218942 23.479840 -18.410179 7.921404 10.951342 -1.634739 0.585211 1.412999 -0.351368 6.861650 -10.380711 0.040900 -1.304800 -3.587900 23.406595 -14.716942 15.232999 -0.543359 -2.961275 2.418759 -0.423960 -0.717686 -15.498027 -0.000100 0.063200 -0.173600 0.537578 2.076962 -2.075058 -1.660388 0.737115 3.133422 4.438050 3.095542 9.412730 -1.079100 1.782300 11.321500 -90.786043 -0.089458 42.151886 12.610721 -22.414526 -2.734916 -0.325001 0.694618 10.769985 -7.125000 0.000000 0.000000 89.257369 -4.539096 34.447589 -20.144481 34.652456 -5.454955 0.349666 -2.800107 0.490851 7.125000 0.000000 0.000000 
-28.776239 17.484584 1.015988 24.880074 88.251238 21.740359 -18.266975 7.905942 10.966158 -1.632783 0.575777 1.406368 -0.351348 6.866970 -10.422753 0.033100 -1.174200 -3.228300 23.528653 -14.765165 15.161690 -0.542445 -2.998364 2.508169 -0.424324 -0.591417 -15.443769 0.000000 0.012100 -0.033200 0.547030 2.073122 -2.070531 -1.696592 0.730304 3.171873 4.446760 3.103539 9.456319 -1.069100 1.787800 11.364900 -90.758421 -0.125721 42.251227 12.598446 -22.394807 -2.729375 -0.326195 0.692218 10.676027 -7.125000 0.000000 0.000000 89.274173 -4.494970 34.410729 -20.085990 34.594624 -5.427398 0.341904 -2.792616 0.524408 7.125000 0.000000 0.000000 
-28.773176 17.485299 1.014047 26.255210 88.204219 23.121789 -18.418266 7.936875 10.977631 -1.636948 0.562065 1.351175 -0.362114 6.959145 -10.386942 0.051400 -1.463500 -4.025200 23.269827 -15.016892 15.099349 -0.545203 -3.024422 2.579530 -0.430698 -0.300116 -15.407915 -0.000900 0.189800 -0.521400 0.536830 2.073697 -2.072932 -1.681329 0.732465 3.180037 4.464038 3.102411 9.469816 -1.047100 1.785000 11.372200 -90.758317 -0.109824 42.308126 12.589229 -22.380955 -2.725391 -0.326497 0.690774 10.685710 -7.125000 0.000000 0.000000 89.259529 -4.478551 34.414307 -20.019458 34.518740 -5.390768 0.344064 -2.782191 0.570506 7.125000 0.000000 0.000000 
-28.771950 17.486422 1.013128 27.533144 88.165194 24.391105 -18.528451 8.020016 10.955354 -1.636860 0.564745 1.340308 -0.366888 6.985396 -10.313662 0.070900 -1.717900 -4.726800 23.127374 -15.046390 15.165380 -0.545147 -3.031385 2.609394 -0.440589 -0.199683 -15.534161 -0.000400 0.127600 -0.350500 0.528426 2.077076 -2.069113 -1.659533 0.736595 3.191367 4.469152 3.102088 9.457776 -1.045200 1.784900 11.356100 -90.751722 -0.120849 42.340331 12.576459 -22.364779 -2.720536 -0.327466 0.691587 10.711666 -7.125000 0.000000 0.000000 89.247568 -4.471919 34.489976 -20.033516 34.533997 -5.397646 0.341420 -2.783829 0.525140 7.125000 0.000000 0.000000 
-28.771746 17.485605 1.013741 27.201107 88.152026 24.072781 -18.492580 8.067568 10.927163 -1.633129 0.564412 1.340805 -0.358355 6.905071 -10.295579 0.060200 -1.583800 -4.356600 23.210588 -14.932623 15.165804 -0.545175 -3.037922 2.631820 -0.444901 -0.236162 -15.631291 0.000000 -0.009100 0.025000 0.531704 2.081770 -2.069858 -1.640626 0.737902 3.187644 4.492038 3.100733 9.428456 -1.031800 1.785400 11.324500 -90.759495 -0.115205 42.272681 12.566761 -22.353382 -2.717381 -0.325460 0.692030 10.795517 -7.125000 0.000000 0.000000 89.234020 -4.487686 34.559631 -20.081948 34.584649 -5.419517 0.340709 -2.786648 0.474392 7.125000 0.000000 0.000000 
-28.771031 17.484380 1.012822 27.527287 88.151911 24.408729 -18.542816 7.986060 10.969060 -1.636470 0.549338 1.299832 -0.349533 6.860334 -10.381117 0.037600 -1.252300 -3.443300 23.118359 -15.092712 15.063618 -0.547664 -3.039061 2.626230 -0.440054 -0.145065 -15.499411 -0.000500 0.145900 -0.400900 0.524469 2.064520 -2.068286 -1.670717 0.730135 3.208548 4.516950 3.113228 9.437831 -1.012700 1.793500 11.331900 -90.754392 -0.116581 42.167001 12.563956 -22.348483 -2.716548 -0.322184 0.690768 10.892846 -7.125000 0.000000 0.000000 89.238235 -4.465858 34.623717 -20.097719 34.609154 -5.428763 0.346099 -2.793314 0.460233 7.125000 0.000000 0.000000 
-28.772869 17.486320 1.012516 27.790142 88.220552 24.618108 -18.552539 7.818211 11.051323 -1.641939 0.565339 1.352300 -0.347140 6.872205 -10.491557 0.025000 -1.021000 -2.806600 23.060459 -15.225686 15.090215 -0.546169 -3.014339 2.550552 -0.431993 -0.168401 -15.361971 -0.001900 0.282900 -0.777400 0.523885 2.025779 -2.085802 -1.707152 0.715312 3.102149 4.498279 3.136324 9.487319 -1.019600 1.805300 11.370100 -90.760259 -0.053420 42.101577 12.576874 -22.359124 -2.721163 -0.319456 0.691591 10.915335 -7.125000 0.000000 0.000000 89.250006 -4.487258 34.644923 -20.067502 34.573740 -5.416890 0.345643 -2.796513 0.467709 7.125000 0.000000 0.000000 
-28.775014 17.487954 1.014354 27.333884 88.262079 24.151584 -18.472365 7.831930 11.009634 -1.638167 0.599825 1.451763 -0.348641 6.853224 -10.421267 0.033900 -1.188300 -3.267000 23.062679 -15.325646 15.054333 -0.545723 -3.024147 2.568608 -0.431995 -0.073672 -15.321086 -0.001700 0.264600 -0.726900 0.538877 2.021505 -2.073927 -1.661577 0.707425 3.133515 4.484148 3.147314 9.457404 -1.025500 1.804400 11.363400 -90.811242 -0.108703 42.060527 12.563119 -22.343288 -2.716613 -0.318836 0.693478 10.924983 -7.125000 0.000000 0.000000 89.228552 -4.407009 34.578064 -20.021464 34.517304 -5.391316 0.342599 -2.784682 0.482067 7.125000 0.000000 0.000000 
-28.774707 17.486932 1.015375 26.244426 88.244819 23.120024 -18.384435 7.923719 10.925905 -1.633883 0.590868 1.431621 -0.354242 6.870799 -10.343239 0.046300 -1.388300 -3.817800 23.149582 -15.306509 14.943565 -0.546714 -3.065985 2.680024 -0.437374 0.026393 -15.379271 -0.000500 0.146200 -0.401800 0.542454 2.030025 -2.074241 -1.677125 0.709937 3.155012 4.463875 3.140248 9.426555 -1.041000 1.798800 11.332100 -90.810016 -0.086336 42.029110 12.570358 -22.356405 -2.719616 -0.319207 0.693787 11.001278 -7.125000 0.000000 0.000000 89.231444 -4.387562 34.587595 -20.034571 34.531524 -5.391225 0.348472 -2.780007 0.408739 7.125000 0.000000 0.000000 
-28.775014 17.486218 1.015783 25.953195 88.249783 22.852473 -18.356654 7.931424 10.899478 -1.634654 0.577886 1.397807 -0.354984 6.895309 -10.402167 0.051400 -1.463500 -4.025100 23.343099 -14.979421 15.016550 -0.544451 -3.062583 2.683582 -0.440513 -0.252413 -15.570064 -0.000100 -0.066800 0.183400 0.536666 2.021683 -2.074740 -1.726274 0.708534 3.165584 4.453646 3.133763 9.406230 -1.055900 1.797800 11.309800 -90.742765 -0.062391 42.069964 12.585837 -22.377968 -2.725414 -0.319414 0.694482 10.972080 -7.125000 0.000000 0.000000 89.259627 -4.364038 34.659498 -20.033926 34.541801 -5.394416 0.351293 -2.788114 0.361738 7.125000 0.000000 0.000000 
-28.775626 17.485707 1.016600 26.455608 88.234168 23.347732 -18.392568 7.935761 10.912932 -1.635010 0.574513 1.384003 -0.352178 6.876374 -10.407506 0.052400 -1.476600 -4.061300 23.396445 -14.817411 15.073146 -0.544293 -3.024078 2.585398 -0.433160 -0.512999 -15.563377 -0.000000 -0.042800 0.117600 0.537858 2.028589 -2.072025 -1.684704 0.711213 3.172324 4.462775 3.137926 9.394456 -1.048500 1.798300 11.308200 -90.743112 -0.090438 42.073083 12.570432 -22.357699 -2.719765 -0.318371 0.694793 10.944428 -7.125000 0.000000 0.000000 89.237174 -4.360328 34.700607 -20.051987 34.557664 -5.404221 0.349140 -2.790294 0.376248 7.125000 0.000000 0.000000 
-28.774605 17.484992 1.016396 27.104798 88.191514 23.999906 -18.477148 7.912843 10.915804 -1.636928 0.586907 1.407173 -0.353275 6.882316 -10.383536 0.042700 -1.334000 -3.668300 23.315863 -14.856015 15.055159 -0.545706 -3.008208 2.543068 -0.427901 -0.562455 -15.488857 -0.001000 0.201900 -0.554800 0.532506 2.042803 -2.068352 -1.662887 0.718336 3.196897 4.458999 3.142336 9.405508 -1.047500 1.798500 11.328600 -90.774234 -0.119095 42.020298 12.562956 -22.347759 -2.717214 -0.319042 0.693382 11.030879 -7.125000 0.000000 0.000000 89.207440 -4.410238 34.694738 -20.097187 34.597585 -5.419118 0.348668 -2.783565 0.389373 7.125000 0.000000 0.000000 
-28.773686 17.484890 1.016294 27.710087 88.173889 24.605915 -18.458118 8.096268 10.748664 -1.626880 0.653521 1.575979 -0.336891 6.714305 -10.316613 0.038500 -1.266800 -3.483200 23.291243 -14.791339 15.111803 -0.544970 -3.010341 2.557758 -0.430977 -0.598639 -15.561714 -0.002000 0.285600 -0.784700 0.527103 2.050922 -2.076778 -1.663347 0.725931 3.168392 4.432875 3.116880 9.448832 -1.066100 1.787100 11.359900 -90.778635 -0.061104 42.028695 12.590102 -22.385336 -2.727482 -0.319687 0.695148 11.086613 -7.125000 0.000000 0.000000 89.221231 -4.481741 34.584426 -20.099527 34.595151 -5.417952 0.349491 -2.779226 0.474644 7.125000 0.000000 0.000000 
-28.775014 17.484482 1.016702 27.770595 88.224424 24.692485 -18.352098 8.284375 10.576155 -1.614789 0.690879 1.678134 -0.326221 6.564051 -10.171873 0.056100 -1.528100 -4.203200 23.302414 -14.842407 15.075160 -0.544906 -3.013912 2.562051 -0.430481 -0.569709 -15.537706 -0.001600 0.257100 -0.706500 0.523444 2.033813 -2.088738 -1.713091 0.721572 3.132104 4.407124 3.066312 9.466841 -1.091300 1.766300 11.355900 -90.730443 0.010849 42.099419 12.633067 -22.444313 -2.743510 -0.321371 0.698732 11.006090 -7.125000 0.000000 0.000000 89.302825 -4.454429 34.452521 -20.010816 34.514833 -5.386072 0.342873 -2.782589 0.620415 7.125000 0.000000 0.000000 
-28.775422 17.484073 1.015579 27.971616 88.279190 24.897445 -18.432796 8.051285 10.738559 -1.627753 0.625832 1.507294 -0.346331 6.755875 -10.204644 0.072400 -1.735600 -4.775500 23.203948 -15.091611 14.977209 -0.545471 -3.013279 2.545880 -0.426107 -0.443827 -15.394658 -0.003300 0.372000 -1.022200 0.529729 2.021301 -2.091084 -1.708011 0.714623 3.127362 4.397017 3.104689 9.449185 -1.099900 1.783400 11.348200 -90.758132 0.011077 42.131625 12.636062 -22.449880 -2.744739 -0.321684 0.701311 10.958062 -7.125000 0.000000 0.000000 89.295349 -4.398275 34.450358 -19.943819 34.446619 -5.364613 0.334806 -2.787772 0.627165 7.125000 0.000000 0.000000 
